<?xml version="1.0" encoding="UTF-8"?>
<svg width="881px" height="1291px" viewBox="0 0 881 1291" version="1.1" xmlns="http://www.w3.org/2000/svg" xmlns:xlink="http://www.w3.org/1999/xlink">
    <!-- Generator: sketchtool 57.1 (101010) - https://sketch.com -->
    <title>E1A8000D-B09B-4BBF-A97B-E561C5490400</title>
    <desc>Created with sketchtool.</desc>
    <defs>
        <polygon id="path-1" points="0 0.9952 1055.388 0.9952 1055.388 1440.11 0 1440.11"></polygon>
    </defs>
    <g id="Prodigy-Blog" stroke="none" stroke-width="1" fill="none" fill-rule="evenodd" opacity="0.321172805">
        <g id="Prodigy-Blog-Desktop-_1" transform="translate(0.000000, -1174.000000)">
            <g id="Background" transform="translate(-175.000000, 0.000000)">
                <g id="fpo-logo" transform="translate(0.000000, 1173.000000)">
                    <mask id="mask-2" fill="white">
                        <use xlink:href="#path-1"></use>
                    </mask>
                    <g id="Clip-2"></g>
                    <path d="M0,290.6452 C0,450.3582 129.937,580.2952 289.654,580.2952 L520.917,580.2952 C555.449,580.2952 583.438,552.3022 583.438,517.7702 C583.438,483.2382 555.449,455.2482 520.917,455.2482 L289.654,455.2482 C198.898,455.2482 125.062,381.4002 125.062,290.6452 C125.062,199.8902 198.898,126.0532 289.654,126.0532 L533.187,126.1562 C752.179,126.1562 930.323,304.3062 930.323,523.2642 C930.323,742.2312 752.179,920.3892 533.208,920.3892 L314.188,920.3892 C269.089,920.3892 232.526,956.9492 232.526,1002.0442 L232.526,1224.9982 C232.526,1268.6452 214.229,1315.0392 180.325,1315.0392 C136.701,1315.0392 125.059,1258.4432 125.059,1224.9982 L125.069,977.5162 C125.069,886.7512 198.906,812.9182 289.661,812.9182 C289.927,812.9102 535.455,812.9102 535.455,812.9102 C695.168,812.9102 825.115,682.9772 825.115,523.2642 C825.115,363.5472 695.168,233.6002 535.455,233.6002 L304.195,233.6002 C269.66,233.6002 241.663,261.6032 241.663,296.1362 C241.663,330.6672 269.66,358.6712 304.195,358.6712 L535.455,358.6712 C626.213,358.6712 700.051,432.5092 700.051,523.2642 C700.051,614.0192 626.213,687.8532 535.455,687.8532 L289.661,687.8532 C129.948,687.8532 0,817.8002 0,977.5162 L0,1224.9982 C0,1349.6452 75.831,1440.1102 180.325,1440.1102 C283.043,1440.1102 357.584,1349.6452 357.584,1224.9982 L357.584,1057.1102 C357.584,1050.6642 362.809,1045.4472 369.254,1045.4472 L533.208,1045.4472 C821.141,1045.4472 1055.388,811.1932 1055.388,523.2642 C1055.388,235.3312 821.141,1.0842 533.208,1.0842 L289.675,0.9952 C129.937,0.9952 0,130.9292 0,290.6452" id="Fill-1" fill-opacity="0.46" fill="#B019EC" mask="url(#mask-2)"></path>
                </g>
            </g>
        </g>
    </g>
</svg>