<?xml version="1.0" encoding="UTF-8"?>
<svg width="20px" height="20px" viewBox="0 0 20 20" version="1.1" xmlns="http://www.w3.org/2000/svg" xmlns:xlink="http://www.w3.org/1999/xlink">
    <!-- Generator: sketchtool 57.1 (101010) - https://sketch.com -->
    <title>65D0BCE7-DA52-495A-9080-65D802A8B697</title>
    <desc>Created with sketchtool.</desc>
    <defs>
        <polygon id="path-1" points="0.0001 0 20 0 20 20 0.0001 20"></polygon>
    </defs>
    <g id="Prodigy-Blog" stroke="none" stroke-width="1" fill="none" fill-rule="evenodd">
        <g id="Prodigy-Blog-Desktop-_1" transform="translate(-974.000000, -39.000000)">
            <g id="Main-Nav" transform="translate(31.000000, 24.000000)">
                <g id="Languages" transform="translate(943.000000, 15.000000)">
                    <mask id="mask-2" fill="white">
                        <use xlink:href="#path-1"></use>
                    </mask>
                    <g id="Clip-2"></g>
                    <path d="M12.3151,19.0423333 C13.2951,18.1773333 14.1017667,16.771 14.6341,15.0173333 C15.9164333,15.4566667 16.6947667,15.9706667 16.9817667,16.1846667 C15.7631,17.5586667 14.1477667,18.573 12.3151,19.0423333 L12.3151,19.0423333 Z M3.01776667,16.184 C3.30376667,15.9693333 4.07943333,15.4536667 5.3651,15.0143333 C5.89743333,16.7693333 6.7041,18.1766667 7.68476667,19.0423333 C5.8521,18.573 4.23643333,17.5583333 3.01776667,16.184 L3.01776667,16.184 Z M7.68476667,0.957666667 C6.69843333,1.82833333 5.88776667,3.247 5.35576667,5.01633333 C4.05076667,4.568 3.26943333,4.04233333 2.99843333,3.838 C4.21943333,2.45233333 5.84243333,1.42966667 7.68476667,0.957666667 L7.68476667,0.957666667 Z M17.0021,3.83866667 C16.7321,4.04333333 15.9531,4.571 14.6451,5.01933333 C14.1131,3.24866667 13.3021,1.82866667 12.3151,0.957666667 C14.1577667,1.42966667 15.7807667,2.45266667 17.0021,3.83866667 L17.0021,3.83866667 Z M15.3291,9.66666667 C15.3051,8.23 15.1277667,6.87833333 14.8244333,5.66733333 C16.2664333,5.17966667 17.1207667,4.59133333 17.4257667,4.35433333 C18.5581,5.84066667 19.2544333,7.675 19.3247667,9.66666667 L15.3291,9.66666667 Z M10.3334333,13.639 L10.3334333,10.3333333 L14.6624333,10.3333333 C14.6381,11.708 14.4647667,13.0073333 14.1734333,14.1693333 C13.1421,13.882 11.8654333,13.6673333 10.3334333,13.639 L10.3334333,13.639 Z M10.3334333,19.307 L10.3334333,14.3056667 C11.7954333,14.3343333 13.0137667,14.5433333 13.9951,14.8193333 C13.2311,17.3433333 11.8857667,19.0863333 10.3334333,19.307 L10.3334333,19.307 Z M9.66676667,14.3056667 L9.66676667,19.307 C8.11376667,19.0863333 6.7681,17.342 6.0041,14.8163333 C6.9841,14.5416667 8.2021,14.334 9.66676667,14.3056667 L9.66676667,14.3056667 Z M5.33743333,10.3333333 L9.66676667,10.3333333 L9.66676667,13.639 C8.13443333,13.6673333 6.85776667,13.882 5.82676667,14.1693333 C5.5351,13.0073333 5.36176667,11.708 5.33743333,10.3333333 L5.33743333,10.3333333 Z M9.66676667,6.39833333 L9.66676667,9.66666667 L5.33743333,9.66666667 C5.36176667,8.306 5.53143333,7.01866667 5.81776667,5.86533333 C6.85043333,6.154 8.1301,6.36966667 9.66676667,6.39833333 L9.66676667,6.39833333 Z M9.66676667,0.693 L9.66676667,5.73166667 C8.19943333,5.70266667 6.9781,5.49233333 5.9951,5.21533333 C6.75743333,2.673 8.10743333,0.914666667 9.66676667,0.693 L9.66676667,0.693 Z M10.3334333,5.73166667 L10.3334333,0.693 C11.8931,0.914666667 13.2434333,2.674 14.0057667,5.218 C13.0241,5.494 11.8027667,5.703 10.3334333,5.73166667 L10.3334333,5.73166667 Z M10.3334333,6.39833333 C11.8701,6.36966667 13.1494333,6.154 14.1824333,5.86533333 C14.4684333,7.01866667 14.6384333,8.306 14.6624333,9.66666667 L10.3334333,9.66666667 L10.3334333,6.39833333 Z M2.57443333,4.35433333 C2.8791,4.59133333 3.73376667,5.17966667 5.17543333,5.66733333 C4.8721,6.87833333 4.6951,8.23 4.6711,9.66666667 L0.6751,9.66666667 C0.745433333,7.675 1.44176667,5.84066667 2.57443333,4.35433333 L2.57443333,4.35433333 Z M0.6751,10.3333333 L4.6711,10.3333333 C4.69543333,11.7833333 4.8751,13.1473333 5.18343333,14.367 C3.7691,14.8443333 2.91476667,15.421 2.59243333,15.6686667 C1.4491,14.1783333 0.745766667,12.3353333 0.6751,10.3333333 L0.6751,10.3333333 Z M17.4077667,15.6686667 C17.0851,15.421 16.2307667,14.8443333 14.8164333,14.367 C15.1247667,13.1473333 15.3047667,11.7833333 15.3291,10.3333333 L19.3247667,10.3333333 C19.2541,12.3353333 18.5507667,14.1783333 17.4077667,15.6686667 L17.4077667,15.6686667 Z M10.0001,0 C4.4861,0 0.0001,4.486 0.0001,10 C0.0001,15.514 4.4861,20 10.0001,20 C15.5141,20 20.0001,15.514 20.0001,10 C20.0001,4.486 15.5141,0 10.0001,0 L10.0001,0 Z" id="Fill-1" fill="#FFFFFF" mask="url(#mask-2)"></path>
                </g>
            </g>
        </g>
    </g>
</svg>