<?xml version="1.0" encoding="UTF-8"?>
<svg width="20px" height="20px" viewBox="0 0 20 20" version="1.1" xmlns="http://www.w3.org/2000/svg" xmlns:xlink="http://www.w3.org/1999/xlink">
    <!-- Generator: sketchtool 57.1 (101010) - https://sketch.com -->
    <title>30F6651B-6944-4210-B001-E043189F88C7</title>
    <desc>Created with sketchtool.</desc>
    <defs>
        <polygon id="path-1" points="0 0 20 0 20 19.99984 0 19.99984"></polygon>
    </defs>
    <g id="Prodigy-Blog" stroke="none" stroke-width="1" fill="none" fill-rule="evenodd">
        <g id="Prodigy-Blog-Desktop-_1" transform="translate(-1034.000000, -40.000000)">
            <g id="Main-Nav" transform="translate(31.000000, 24.000000)">
                <g id="Logo-in" transform="translate(1003.000000, 16.000000)">
                    <g id="Icon_Log-In-Icon">
                        <path d="M10,3.55996 C8.2132,3.55996 6.76,5.01356 6.76,6.79996 C6.76,8.58636 8.2132,10.03996 10,10.03996 C11.7864,10.03996 13.24,8.58636 13.24,6.79996 C13.24,5.01356 11.7864,3.55996 10,3.55996 M10,10.79996 C7.7944,10.79996 6,9.00556 6,6.79996 C6,4.59436 7.7944,2.79996 10,2.79996 C12.2056,2.79996 14,4.59436 14,6.79996 C14,9.00556 12.2056,10.79996 10,10.79996" id="Fill-1" fill="#FFFFFF"></path>
                        <g id="Group-5">
                            <mask id="mask-2" fill="white">
                                <use xlink:href="#path-1"></use>
                            </mask>
                            <g id="Clip-4"></g>
                            <path d="M10,19.23984 C7.3308,19.23984 4.9236,18.10104 3.2352,16.28504 C3.3352,15.47784 3.5664,14.84104 3.89,14.49224 C4.4296,13.91024 6.5804,12.39984 10,12.39984 C13.4196,12.39984 15.5704,13.91024 16.11,14.49184 C16.434,14.84144 16.6652,15.47784 16.7644,16.28504 C15.076,18.10104 12.6692,19.23984 10,19.23984 M10,0.75984 C15.0948,0.75984 19.24,4.90504 19.24,9.99984 C19.24,12.05104 18.5672,13.94784 17.432,15.48224 C17.302,14.93584 17.0804,14.36184 16.6968,13.94784 C16.6748,13.92424 14.4656,11.59984 10,11.59984 C5.5344,11.59984 3.3252,13.92424 3.3032,13.94824 C2.9196,14.36224 2.698,14.93584 2.5676,15.48224 C1.4328,13.94784 0.76,12.05104 0.76,9.99984 C0.76,4.90504 4.9052,0.75984 10,0.75984 M10,-0.00016 C4.486,-0.00016 0,4.48584 0,9.99984 C0,15.51424 4.486,19.99984 10,19.99984 C15.514,19.99984 20,15.51424 20,9.99984 C20,4.48584 15.514,-0.00016 10,-0.00016" id="Fill-3" fill="#FFFFFF" mask="url(#mask-2)"></path>
                        </g>
                    </g>
                </g>
            </g>
        </g>
    </g>
</svg>