<?xml version="1.0" encoding="UTF-8"?>
<svg width="85px" height="26px" viewBox="0 0 85 26" version="1.1" xmlns="http://www.w3.org/2000/svg" xmlns:xlink="http://www.w3.org/1999/xlink">
    <!-- Generator: sketchtool 57.1 (101010) - https://sketch.com -->
    <title>B8637B18-AEBD-45F3-8F73-B060A65F08EB</title>
    <desc>Created with sketchtool.</desc>
    <defs>
        <polygon id="path-1" points="0 0.370955991 13.6833015 0.370955991 13.6833015 20.2406214 0 20.2406214"></polygon>
        <polygon id="path-3" points="0 26 85 26 85 0 0 0"></polygon>
    </defs>
    <g id="Prodigy-Blog" stroke="none" stroke-width="1" fill="none" fill-rule="evenodd">
        <g id="Prodigy-Blog-Desktop-_1" transform="translate(-31.000000, -2367.000000)">
            <g id="Footer" transform="translate(31.000000, 2366.000000)">
                <g id="logo/prodigy-logo-light-copy-logo/prodigy-logo-light" transform="translate(0.000000, 1.000000)">
                    <g id="Group-14">
                        <g id="Group-3" transform="translate(0.000000, 5.098039)">
                            <mask id="mask-2" fill="white">
                                <use xlink:href="#path-1"></use>
                            </mask>
                            <g id="Clip-2"></g>
                            <path d="M6.85449508,3.60379262 C4.96622654,3.60379262 3.44009169,5.31220219 3.44009169,7.41486013 C3.44009169,9.54380129 4.96622654,11.2784941 6.85449508,11.2784941 C8.74276361,11.2784941 10.2688985,9.62265096 10.2688985,7.41486013 C10.2688985,5.23335252 8.74276361,3.60379262 6.85449508,3.60379262 M7.34596223,14.5113314 C5.81982738,14.5113314 4.44889269,13.9068172 3.44009169,12.9080546 L3.44009169,20.2406214 L-0.000178390976,20.2406214 L-0.000178390976,0.686807857 L3.28489153,0.686807857 L3.28489153,2.10564888 C4.31955923,1.02803663 5.74222731,0.370955991 7.34596223,0.370955991 C10.8379657,0.370955991 13.6833018,3.41981016 13.6833018,7.41486046 C13.6833018,11.436194 10.8379657,14.5113314 7.34596223,14.5113314" id="Fill-1" fill="#FFFFFF" mask="url(#mask-2)"></path>
                        </g>
                        <path d="M22.0180723,8.91363586 C19.8040765,8.52238787 18.3280794,9.69613183 18.3280794,11.6002054 L18.3280794,19.372549 L14.8493976,19.372549 L14.8493976,11.6002054 C14.8493976,7.79205829 17.5114639,5.13157197 22.0180723,5.67931916 L22.0180723,8.91363586 Z" id="Fill-4" fill="#FFFFFF"></path>
                        <path d="M32.431692,12.7981961 C32.431692,10.4454703 30.9695429,8.80649281 29.1739212,8.80649281 C27.3782994,8.80649281 25.9165925,10.4454703 25.9165925,12.7981961 C25.9165925,15.0980516 27.3782994,16.6841588 29.1739212,16.6841588 C30.9695429,16.6841588 32.431692,15.0980516 32.431692,12.7981961 M35.8433735,12.771761 C35.8433735,16.8427698 32.8421199,19.8823529 29.1739211,19.8823529 C25.5057223,19.8823529 22.5301205,16.8427698 22.5301205,12.771761 C22.5301205,8.70075235 25.5057223,5.60784314 29.1739211,5.60784314 C32.8421199,5.60784314 35.8433735,8.70075235 35.8433735,12.771761" id="Fill-6" fill="#FFFFFF"></path>
                        <path d="M43.2811397,8.95339248 C41.3733005,8.95339248 39.8313482,10.6388224 39.8313482,12.8509493 C39.8313482,15.0104064 41.3733005,16.6695015 43.2811397,16.6695015 C45.1889789,16.6695015 46.7309312,14.9577367 46.7309312,12.8509493 C46.7309312,10.6914921 45.1889789,8.95339248 43.2811397,8.95339248 L43.2811397,8.95339248 Z M50.1807229,19.5926697 L46.88774,19.5926697 L46.88774,18.1442533 C45.8162138,19.2503167 44.4049354,19.8823529 42.758444,19.8823529 C39.2563828,19.8823529 36.3554217,16.8275111 36.3554217,12.8246148 C36.3554217,8.79538375 39.2563828,5.74054188 42.758444,5.74054188 C44.3265311,5.74054188 45.6855399,6.31990844 46.7309313,7.3206325 L46.7309313,0 L50.1807229,0 L50.1807229,19.5926697 Z" id="Fill-8" fill="#FFFFFF"></path>
                        <mask id="mask-4" fill="white">
                            <use xlink:href="#path-3"></use>
                        </mask>
                        <g id="Clip-11"></g>
                        <path d="M52.2289157,19.3725495 L55.813253,19.3725495 L55.813253,6.13171877 L52.2289157,6.13171877 L52.2289157,19.3725495 Z M52.2289157,4.69189083 L55.813253,4.69189083 L55.813253,1.52941176 L52.2289157,1.52941176 L52.2289157,4.69189083 Z" id="Fill-10" fill="#FFFFFF" mask="url(#mask-4)"></path>
                        <path d="M64.2751156,8.84974497 C62.3672764,8.84974497 60.8253241,10.4968402 60.8253241,12.7191116 C60.8253241,14.8629498 62.3672764,16.5100451 64.2751156,16.5100451 C66.1829548,16.5100451 67.7249071,14.8106611 67.7249071,12.7191116 C67.7249071,10.5752733 66.1829548,8.84974497 64.2751156,8.84974497 L64.2751156,8.84974497 Z M71.1746988,18.7323163 C71.1746988,23.2025525 68.5089507,26 64.1967112,26 C60.9559979,26 58.1857107,24.1437498 57.6634656,21.2940136 L61.426424,21.2940136 C61.871166,22.3659327 63.255859,22.7846934 64.1967112,22.7846934 C66.6272462,22.7846934 67.7249072,21.1894361 67.7249072,18.784605 L67.7249072,18.1832845 C66.7056506,19.1767705 65.320507,19.6996579 63.8046895,19.6996579 C60.2503587,19.6996579 57.3493976,16.5623336 57.3493976,12.6929671 C57.3493976,8.79745613 60.1985397,5.60784314 64.2751156,5.60784314 C68.3260072,5.60784314 71.1746988,8.79745613 71.1746988,12.6929671 L71.1746988,18.7323163 Z" id="Fill-12" fill="#FFFFFF" mask="url(#mask-4)"></path>
                        <path d="M79.0525119,21.639262 C77.7482382,25.1668005 75.6874858,25.640649 72.8702546,25.4563746 L72.8702546,22.2973849 C74.5918959,22.4026845 75.4005456,21.9814859 75.974426,20.428316 L76.3657081,19.4016443 L71.1746988,5.60784314 L74.8266652,5.60784314 L78.1134349,15.4002574 L81.3219482,5.60784314 L85,5.60784314 L79.0525119,21.639262 Z" id="Fill-13" fill="#FFFFFF" mask="url(#mask-4)"></path>
                    </g>
                </g>
            </g>
        </g>
    </g>
</svg>