<?xml version="1.0" encoding="UTF-8"?>
<svg width="24px" height="24px" viewBox="0 0 24 24" version="1.1" xmlns="http://www.w3.org/2000/svg" xmlns:xlink="http://www.w3.org/1999/xlink">
    <!-- Generator: Sketch 57.1 (83088) - https://sketch.com -->
    <title>Social/Google+ - Dark</title>
    <desc>Created with Sketch.</desc>
    <g id="Social/Google+---Dark" stroke="none" stroke-width="1" fill="none" fill-rule="evenodd">
        <path d="M21.3584906,11.1633663 L21.3584906,8.56435644 L19.4716981,8.56435644 L19.4716981,11.1633663 L16.754717,11.1633663 L16.754717,13.019802 L19.4716981,13.019802 L19.4716981,15.6930693 L21.3584906,15.6930693 L21.3584906,13.019802 L24,13.019802 L24,11.1633663 L21.3584906,11.1633663 L21.3584906,11.1633663 Z M7.62264151,11.0148515 L7.62264151,13.9851485 C7.62264151,13.9851485 10.5512453,13.9812871 11.7436981,13.9812871 C11.0979623,15.9068564 10.0938868,16.9554455 7.62264151,16.9554455 C5.12173585,16.9554455 3.16981132,14.9606683 3.16981132,12.5 C3.16981132,10.0393317 5.12173585,8.04455446 7.62264151,8.04455446 C8.94490566,8.04455446 9.79886792,8.50183168 10.5821887,9.13918317 C11.2092075,8.52225248 11.1568302,8.43433168 12.7520755,6.95207921 C11.3978868,5.73930693 9.59803774,5 7.62264151,5 C3.41275472,5 0,8.35784653 0,12.5 C0,16.6420792 3.41275472,20 7.62264151,20 C13.9152453,20 15.453283,14.6089109 14.9433962,11.0148515 L7.62264151,11.0148515 L7.62264151,11.0148515 Z" id="GooglePlus" fill="#373737"></path>
    </g>
</svg>