<?xml version="1.0" encoding="UTF-8"?>
<svg width="24px" height="24px" viewBox="0 0 24 24" version="1.1" xmlns="http://www.w3.org/2000/svg" xmlns:xlink="http://www.w3.org/1999/xlink">
    <!-- Generator: Sketch 57.1 (83088) - https://sketch.com -->
    <title>Social/Instagram - Dark</title>
    <desc>Created with Sketch.</desc>
    <g id="Social/Instagram---Dark" stroke="none" stroke-width="1" fill="none" fill-rule="evenodd">
        <path d="M13.4084067,0.000483937503 C15.4186143,0.00503343273 15.8801686,0.0227374306 16.946775,0.0714035773 C18.2240351,0.129660051 19.0963579,0.332533577 19.8596463,0.629198596 C20.6487524,0.935819137 21.3179635,1.34613906 21.9851264,2.01325428 C22.6522416,2.68041714 23.0625615,3.34962826 23.3692297,4.13873434 C23.6658471,4.90202276 23.8687206,5.77434558 23.9269771,7.05160566 C23.9834298,8.28886901 23.9982199,8.71197439 23.9991431,11.6826747 L23.9991431,12.3157489 C23.9982199,15.2864062 23.9834298,15.7095116 23.9269771,16.946775 C23.8687206,18.2240351 23.6658471,19.0963579 23.3692297,19.8596463 C23.0625615,20.6487524 22.6522416,21.3179635 21.9851264,21.9851264 C21.3179635,22.6522416 20.6487524,23.0625615 19.8596463,23.3692297 C19.0963579,23.6658471 18.2240351,23.8687206 16.946775,23.9269771 C15.7095116,23.9834298 15.2864062,23.9982199 12.3157489,23.9991431 L11.6826747,23.9991431 C8.71197439,23.9982199 8.28886901,23.9834298 7.05160566,23.9269771 C5.77434558,23.8687206 4.90202276,23.6658471 4.13873434,23.3692297 C3.34962826,23.0625615 2.68041714,22.6522416 2.01325428,21.9851264 C1.34613906,21.3179635 0.935819137,20.6487524 0.629198596,19.8596463 C0.332533577,19.0963579 0.129660051,18.2240351 0.0714035773,16.946775 C0.0227374306,15.8801686 0.00503343273,15.4186143 0.000483937503,13.4084067 L0.000483937503,10.5900015 C0.00503343273,8.57976633 0.0227374306,8.118212 0.0714035773,7.05160566 C0.129660051,5.77434558 0.332533577,4.90202276 0.629198596,4.13873434 C0.935819137,3.34962826 1.34613906,2.68041714 2.01325428,2.01325428 C2.68041714,1.34613906 3.34962826,0.935819137 4.13873434,0.629198596 C4.90202276,0.332533577 5.77434558,0.129660051 7.05160566,0.0714035773 C8.06488168,0.0251707379 8.53209827,0.00688123789 10.2998121,0.00126724651 L10.5900015,0.000483937503 L13.4084067,0.000483937503 Z M12.8794196,2.16174913 L11.1189958,2.16174913 C8.71029275,2.16425192 8.28897698,2.17936383 7.15016057,2.23132308 C5.98017242,2.28467324 5.34478149,2.48016348 4.9219338,2.64450104 C4.36180472,2.86218877 3.96205956,3.12222318 3.54216519,3.54216519 C3.12222318,3.96205956 2.86218877,4.36180472 2.64450104,4.9219338 C2.48016348,5.34478149 2.28467324,5.98017242 2.23132308,7.15016057 C2.17936383,8.28897698 2.16425192,8.71029275 2.16174913,11.1189958 L2.16174913,12.8794196 C2.16425192,15.2880879 2.17936383,15.7094037 2.23132308,16.8482201 C2.28467324,18.0182082 2.48016348,18.6535992 2.64450104,19.0764468 C2.86218877,19.6365759 3.12227082,20.0363211 3.54216519,20.4562155 C3.96205956,20.8761575 4.36180472,21.1361919 4.9219338,21.3538796 C5.34478149,21.5182172 5.98017242,21.7137074 7.15016057,21.7670576 C8.41536923,21.8247901 8.79482227,21.837032 11.9992141,21.837032 C15.2035584,21.837032 15.583059,21.8247901 16.8482201,21.7670576 C18.0182082,21.7137074 18.6535992,21.5182172 19.0764468,21.3538796 C19.6365759,21.1361919 20.0363211,20.8761575 20.4562155,20.4562155 C20.8761575,20.0363211 21.1361919,19.6365759 21.3538796,19.0764468 C21.5182172,18.6535992 21.7137074,18.0182082 21.7670576,16.8482201 C21.8247901,15.5828685 21.837032,15.2033202 21.837032,11.9992141 C21.837032,8.79506045 21.8247901,8.41551214 21.7670576,7.15016057 C21.7137074,5.98017242 21.5182172,5.34478149 21.3538796,4.9219338 C21.1361919,4.36180472 20.8761575,3.96205956 20.4562155,3.54216519 C20.0363211,3.12222318 19.6365759,2.86218877 19.0764468,2.64450104 C18.6535992,2.48016348 18.0182082,2.28467324 16.8482201,2.23132308 C15.7094037,2.17936383 15.2880879,2.16425192 12.8794196,2.16174913 Z M11.9992141,5.83703202 C15.4024783,5.83703202 18.1613486,8.59590238 18.1613486,11.9992141 C18.1613486,15.4024783 15.4024783,18.1613486 11.9992141,18.1613486 C8.59590238,18.1613486 5.83703202,15.4024783 5.83703202,11.9992141 C5.83703202,8.59590238 8.59590238,5.83703202 11.9992141,5.83703202 Z M11.9992141,7.99919032 C9.790041,7.99919032 7.99919032,9.790041 7.99919032,11.9992141 C7.99919032,14.2083396 9.790041,15.9991903 11.9992141,15.9991903 C14.2083396,15.9991903 15.9991903,14.2083396 15.9991903,11.9992141 C15.9991903,9.790041 14.2083396,7.99919032 11.9992141,7.99919032 Z M18.4048064,4.15354854 C19.2001049,4.15354854 19.8448321,4.79827575 19.8448321,5.59357426 C19.8448321,6.38887278 19.2001049,7.03355235 18.4048064,7.03355235 C17.6095555,7.03355235 16.9648283,6.38887278 16.9648283,5.59357426 C16.9648283,4.79827575 17.6095555,4.15354854 18.4048064,4.15354854 Z" id="Instagram" fill="#373737"></path>
    </g>
</svg>