<?xml version="1.0" encoding="UTF-8"?>
<svg width="24px" height="24px" viewBox="0 0 24 24" version="1.1" xmlns="http://www.w3.org/2000/svg" xmlns:xlink="http://www.w3.org/1999/xlink">
    <!-- Generator: Sketch 57.1 (83088) - https://sketch.com -->
    <title>Social/Linkedin - Dark</title>
    <desc>Created with Sketch.</desc>
    <g id="Social/Linkedin---Dark" stroke="none" stroke-width="1" fill="none" fill-rule="evenodd">
        <path d="M24,24 L24,24 L19.06875,24 L19.06875,15.6009761 C19.06875,13.2981942 18.19375,12.0113226 16.3710937,12.0113226 C14.3882812,12.0113226 13.3523437,13.3505124 13.3523437,15.6009761 L13.3523437,24 L8.6,24 L8.6,8 L13.3523437,8 L13.3523437,10.1551977 C13.3523437,10.1551977 14.78125,7.51117618 18.1765625,7.51117618 C21.5703125,7.51117618 24,9.58360176 24,13.8697901 L24,24 Z M2.93046875,5.90492923 L2.93046875,5.90492923 C1.31171875,5.90492923 0,4.5829185 0,2.95246462 C0,1.32201074 1.31171875,0 2.93046875,0 C4.54921875,0 5.86015625,1.32201074 5.86015625,2.95246462 C5.86015625,4.5829185 4.54921875,5.90492923 2.93046875,5.90492923 L2.93046875,5.90492923 Z M0.4765625,24 L5.43203125,24 L5.43203125,8 L0.4765625,8 L0.4765625,24 Z" id="Linkedin" fill="#373737"></path>
    </g>
</svg>