<?xml version="1.0" encoding="UTF-8"?>
<svg width="24px" height="24px" viewBox="0 0 24 24" version="1.1" xmlns="http://www.w3.org/2000/svg" xmlns:xlink="http://www.w3.org/1999/xlink">
    <!-- Generator: Sketch 57.1 (83088) - https://sketch.com -->
    <title>Social/Mail - Dark</title>
    <desc>Created with Sketch.</desc>
    <g id="Social/Mail---Dark" stroke="none" stroke-width="1" fill="none" fill-rule="evenodd">
        <path d="M0,5.49699693 L0,19.6099314 C0,20.3777252 0.54609375,21 1.2984375,21 L22.7015625,21 C23.453125,21 24,20.3704895 24,19.6099314 L24,5.49699693 C24,4.65443367 23.5109375,4 22.7015625,4 L1.2984375,4 C0.4578125,4 0,4.67051312 0,5.49699693 M1.9734375,6.72627099 C1.9734375,6.38619059 2.1734375,6.19162923 2.49296875,6.19162923 C2.690625,6.19162923 10.4679688,11.2630882 10.9390625,11.5605581 L12.15625,12.3396075 C12.5421875,12.0734926 12.9296875,11.8459683 13.3296875,11.5702057 C14.1460938,11.033152 21.4101563,6.19162923 21.6101563,6.19162923 C21.9304687,6.19162923 22.1296875,6.38619059 22.1296875,6.72627099 C22.1296875,7.0864507 21.4554688,7.44421849 21.0164062,7.71998108 C18.2578125,9.45013005 15.5,11.3362497 12.76875,13.1307165 C12.609375,13.2416647 12.3007813,13.4788366 12.0695313,13.4426578 C11.8117188,13.4016552 3.89765625,8.16940175 2.4578125,7.29789548 C2.24140625,7.16684795 1.9734375,7.04705604 1.9734375,6.72627099" id="Email" fill="#373737"></path>
    </g>
</svg>