<?xml version="1.0" encoding="UTF-8"?>
<svg width="24px" height="24px" viewBox="0 0 24 24" version="1.1" xmlns="http://www.w3.org/2000/svg" xmlns:xlink="http://www.w3.org/1999/xlink">
    <!-- Generator: Sketch 57.1 (83088) - https://sketch.com -->
    <title>Social/Pinterest - Dark</title>
    <desc>Created with Sketch.</desc>
    <g id="Social/Pinterest---Dark" stroke="none" stroke-width="1" fill="none" fill-rule="evenodd">
        <path d="M14.1211905,17.345457 C12.6357138,17.345457 11.2383521,16.5399816 10.7595685,15.6266927 C10.7595685,15.6266927 9.96029632,18.8025004 9.79186432,19.4157868 C9.19689389,21.5822111 7.44395347,23.7501979 7.30749236,23.9267619 C7.21313926,24.0509817 7.00337904,24.0119188 6.98154526,23.8494175 C6.94333615,23.5728527 6.49652349,20.8392362 7.0220937,18.6095301 C7.28565859,17.4899895 8.79218923,11.0977487 8.79218923,11.0977487 C8.79218923,11.0977487 8.35239457,10.2172726 8.35239457,8.91648055 C8.35239457,6.87349478 9.53453766,5.34848207 11.0067581,5.34848207 C12.2575216,5.34848207 12.8626292,6.28989616 12.8626292,7.41803057 C12.8626292,8.67897857 12.0610176,10.562588 11.6469556,12.3102588 C11.3030736,13.772771 12.3807265,14.9649685 13.8186367,14.9649685 C16.4254338,14.9649685 18.1814933,11.610253 18.1814933,7.63521988 C18.1814933,4.61488221 16.1517318,2.35314461 12.4563649,2.35314461 C8.28377412,2.35314461 5.68165573,5.47113934 5.68165573,8.95554338 C5.68165573,10.1555534 6.03567483,11.0039979 6.59009682,11.6586909 C6.84508415,11.9602559 6.88017415,12.0813507 6.78816037,12.4266661 C6.72109949,12.6805744 6.57060238,13.291517 6.50744038,13.5337065 C6.4154266,13.8829282 6.13314705,14.0079292 5.81811684,13.8782406 C3.89752421,13.0930779 3,10.982904 3,8.61179051 C3,4.69613288 6.29768016,0 12.8345572,0 C18.0879199,0 21.5454545,3.80784423 21.5454545,7.89694081 C21.5454545,13.3055796 18.5448697,17.345457 14.1211905,17.345457" id="Pinterest" fill="#373737"></path>
    </g>
</svg>