<?xml version="1.0" encoding="UTF-8"?>
<svg width="24px" height="24px" viewBox="0 0 24 24" version="1.1" xmlns="http://www.w3.org/2000/svg" xmlns:xlink="http://www.w3.org/1999/xlink">
    <!-- Generator: Sketch 57.1 (83088) - https://sketch.com -->
    <title>Social/Share - Dark</title>
    <desc>Created with Sketch.</desc>
    <g id="Social/Share---Dark" stroke="none" stroke-width="1" fill="none" fill-rule="evenodd">
        <path d="M4.35260436,16.4176267 C5.36442556,16.4176267 6.29645364,16.0699135 7.03564832,15.4874244 L15.2953454,19.5815387 C15.2953454,19.598229 15.2942372,19.6132502 15.2942372,19.6293841 C15.2942372,22.0427919 17.2436276,24 19.6473956,24 C22.0506095,24 24,22.0427919 24,19.6293841 C24,17.2165326 22.0506095,15.2593245 19.6473956,15.2593245 C18.367935,15.2593245 17.2186923,15.8123276 16.4229775,16.6935719 L8.63428149,12.8331208 C8.67971925,12.5788729 8.70520872,12.3168363 8.70520872,12.0481235 C8.70520872,11.9941584 8.70354636,11.9407497 8.70132989,11.8873409 L16.7587736,7.63912005 C17.5278907,8.32341964 18.5391577,8.74067549 19.6473956,8.74067549 C22.0517178,8.74067549 24,6.78402374 24,4.37061592 C24,1.95609541 22.0506095,0 19.6473956,0 C17.2436276,0 15.2942372,1.95609541 15.2942372,4.37061592 C15.2942372,4.55087044 15.307536,4.72778692 15.3280384,4.90192169 L7.49889176,9.02997288 C6.70650166,8.19768655 5.5905061,7.67806393 4.35260436,7.67806393 C1.94883635,7.67806393 0,9.63527203 0,12.0481235 C0,14.4615313 1.94883635,16.4176267 4.35260436,16.4176267" id="Share" fill="#373737"></path>
    </g>
</svg>