<?xml version="1.0" encoding="UTF-8"?>
<svg width="24px" height="24px" viewBox="0 0 24 24" version="1.1" xmlns="http://www.w3.org/2000/svg" xmlns:xlink="http://www.w3.org/1999/xlink">
    <!-- Generator: Sketch 57.1 (83088) - https://sketch.com -->
    <title>Social/Skype - Dark</title>
    <desc>Created with Sketch.</desc>
    <g id="Social/Skype---Dark" stroke="none" stroke-width="1" fill="none" fill-rule="evenodd">
        <path d="M12.1115985,4.01647976 C15.7232848,4.22904228 17.8383927,5.82484743 18.0442183,7.31490009 C18.1447622,8.28888057 17.4999123,9.04606843 16.381295,9.04606843 C14.7478505,9.04606843 14.5809791,6.85857807 11.7683804,6.85857807 C10.4992104,6.85857807 9.42796982,7.38839807 9.42796982,8.53792769 C9.42796982,10.9400956 18.4416564,9.54469145 18.4416564,14.8333737 C18.4416564,17.8822182 16.0122829,19.879354 12.3858572,19.879354 C9.19687665,19.879354 5.99105106,18.4273723 6.00736971,15.9268545 C6.0126338,15.1723105 6.57325847,14.4801604 7.3186524,14.4801604 C9.19687665,14.4801604 9.17950518,17.2831303 12.1700298,17.2831303 C14.2677663,17.2831303 14.9842078,16.1336007 14.9842078,15.3319967 C14.9842078,12.4386085 5.91682751,14.2126066 5.91682751,8.77005442 C5.91682751,5.82484743 8.32619758,3.793342 12.1115985,4.01647976 M0.792770662,12.0087246 C0.792770662,18.2206261 5.8057554,23.2576175 11.9910511,23.2576175 C12.7090718,23.2576175 13.4102474,23.1872921 14.0898403,23.0572165 C15.07475,23.6552469 16.229163,24 17.4651693,24 C21.0736971,23.9989425 24,21.0595519 24,17.4338276 C24,16.1626826 23.638884,14.9771971 23.017196,13.9709621 C23.1282681,13.3338033 23.1898579,12.6781379 23.1898579,12.0087246 C23.1898579,5.79576549 18.1758203,0.76036044 11.9910511,0.76036044 C11.2872434,0.76036044 10.5981751,0.828570799 9.92911037,0.953358743 C8.93998947,0.348454471 7.7782067,0 6.53588349,0 C2.92630286,0 0,2.9393906 0,6.5651149 C0,7.82938597 0.35690472,9.00852629 0.972802246,10.0105312 C0.856466047,10.6593227 0.792770662,11.3260922 0.792770662,12.0087246" id="Skype" fill="#373737"></path>
    </g>
</svg>