<?xml version="1.0" encoding="UTF-8"?>
<svg width="24px" height="24px" viewBox="0 0 24 24" version="1.1" xmlns="http://www.w3.org/2000/svg" xmlns:xlink="http://www.w3.org/1999/xlink">
    <!-- Generator: Sketch 57.1 (83088) - https://sketch.com -->
    <title>Social/Slapchat - Dark</title>
    <desc>Created with Sketch.</desc>
    <g id="Social/Slapchat---Dark" stroke="none" stroke-width="1" fill="none" fill-rule="evenodd">
        <path d="M12.23076,1 L12.2297026,1 C12.208991,1 12.1895232,1 12.1709885,1.00024255 C12.023208,1.00169787 11.7802657,1.00400213 11.7584345,1.00424468 C11.2256534,1.00424468 10.1596558,1.07761703 9.01460548,1.57036386 C8.35991785,1.85190749 7.77103486,2.23259474 7.26437655,2.70187455 C6.66031743,3.26102032 6.16821327,3.95041716 5.80199621,4.75120656 C5.26566984,5.92370875 5.39298749,7.89863757 5.49523967,9.48572381 L5.49561285,9.48820998 C5.50655956,9.65817914 5.51806604,9.83566745 5.52857736,10.0086079 C5.44989792,10.0438387 5.32233148,10.08101 5.13430937,10.08101 C4.83178224,10.08101 4.47203369,9.98671746 4.06532627,9.8009217 C3.94565887,9.74658978 3.80907384,9.71912063 3.65837005,9.71912063 C3.41623639,9.71912063 3.16097912,9.78861213 2.93955712,9.91552809 C2.66097591,10.0750068 2.48097724,10.3003994 2.43209025,10.5502898 C2.3998721,10.7155898 2.40142703,11.042309 2.77367722,11.3736367 C2.97843037,11.5560367 3.27921598,11.7242473 3.66745084,11.873842 C3.76932984,11.9129537 3.89024118,11.9503069 4.01830519,11.9899037 C4.46270411,12.1276133 5.13530453,12.3356633 5.3107006,12.7381197 C5.39958039,12.9421676 5.36132912,13.210674 5.19731513,13.5352102 C5.19302352,13.5440634 5.18873191,13.5527346 5.18481349,13.5618304 C5.14382554,13.6551527 4.76143722,14.4996017 3.97706845,15.3901964 C3.53136339,15.8966475 3.04044097,16.3199029 2.51873093,16.6485625 C1.8819561,17.0498061 1.19293563,17.3121274 0.471012841,17.4280678 C0.187518048,17.4734253 -0.014933806,17.7196774 0.000864280303,17.9995232 C0.00571566114,18.0801721 0.0251211845,18.1605785 0.0587698644,18.2383774 C0.0590186531,18.2388625 0.0593296391,18.2393476 0.0595784279,18.2397721 C0.174207849,18.5011838 0.439976443,18.7232413 0.872060323,18.919103 C1.40005227,19.1581998 2.1897078,19.3593371 3.2188847,19.5166934 C3.27088156,19.6131083 3.32486872,19.855419 3.36224923,20.0213254 C3.40137126,20.1976616 3.44217262,20.3789701 3.50032699,20.5715573 C3.56308395,20.7802137 3.725854,21.0295584 4.14400571,21.0295584 C4.30248415,21.0295584 4.48472192,20.994752 4.69575699,20.954852 C5.00481482,20.8957297 5.42744473,20.8150807 5.9549391,20.8150807 C6.24739029,20.8150807 6.5504772,20.840185 6.85555442,20.8896052 C7.44362885,20.9850499 7.95059815,21.3342052 8.53717985,21.7385414 C9.39574986,22.33025 10.367581,23 11.8524145,23 C11.8929048,23 11.9335196,22.9987266 11.9736368,22.9959979 C12.0227104,22.9982415 12.0835392,23 12.1477267,23 C13.6329956,23 14.6045779,22.3300074 15.462215,21.738784 L15.4635833,21.7375712 C16.0502894,21.3337201 16.556699,20.9850499 17.1445868,20.8896052 C17.4495396,20.8402456 17.7525643,20.8150807 18.0451399,20.8150807 C18.5490616,20.8150807 18.9480565,20.8777201 19.304322,20.9454531 C19.5368151,20.9900829 19.717498,21.0115488 19.8561355,21.0115488 L19.8696945,21.0117914 L19.8837511,21.0117914 C20.1895746,21.0117914 20.4142931,20.8481286 20.500063,20.5617339 C20.5570356,20.3732094 20.5977126,20.1961456 20.6378298,20.0168382 C20.6727846,19.8613616 20.7286377,19.6121381 20.7806345,19.5146924 C21.8104956,19.3570328 22.5998402,19.15632 23.1278943,18.9172838 C23.558983,18.7223317 23.8244406,18.5005168 23.9397542,18.2401966 C23.9743359,18.1621551 23.9945499,18.0812636 23.9990903,17.9989168 C24.0153238,17.7195561 23.812561,17.4728189 23.5288796,17.4274614 C20.3204375,16.9119146 18.875037,13.6978421 18.8152655,13.5612846 C18.8114093,13.5523102 18.8070555,13.5433964 18.8025151,13.5347251 C18.6385011,13.2100676 18.600623,12.9418644 18.689565,12.7374527 C18.8645879,12.3353601 19.5367529,12.1273101 19.9814628,11.9896612 C20.110211,11.950125 20.2315577,11.9125293 20.3326282,11.8735995 C20.7704342,11.705025 21.0833483,11.5221399 21.2897807,11.3144537 C21.5363304,11.0668675 21.5843466,10.8296505 21.5813612,10.6744164 C21.5738353,10.2988228 21.2793316,9.96506958 20.8108624,9.80164936 C20.6526327,9.73785787 20.4721987,9.70420361 20.2884682,9.70420361 C20.1633896,9.70420361 19.9781664,9.72093978 19.8028325,9.80073979 C19.4274725,9.97198235 19.0912345,10.0656079 18.8025773,10.0789483 C18.6490746,10.0713685 18.5414113,10.038927 18.4716882,10.0079409 C18.4804581,9.86143873 18.4901608,9.71093446 18.5001746,9.55400254 L18.5043418,9.4868153 C18.6071537,7.89869821 18.7349068,5.92225343 18.1983316,4.74890231 C17.8305596,3.94526291 17.3367139,3.25410756 16.7302291,2.69374902 C16.2215805,2.22416602 15.6307072,1.8435394 14.9736561,1.56217769 C13.8302229,1.07306915 12.7642875,1 12.23076,1" id="Snapchat" fill="#373737"></path>
    </g>
</svg>