<?xml version="1.0" encoding="UTF-8"?>
<svg width="24px" height="24px" viewBox="0 0 24 24" version="1.1" xmlns="http://www.w3.org/2000/svg" xmlns:xlink="http://www.w3.org/1999/xlink">
    <!-- Generator: Sketch 57.1 (83088) - https://sketch.com -->
    <title>Social/Twitter - Dark</title>
    <desc>Created with Sketch.</desc>
    <g id="Social/Twitter---Dark" stroke="none" stroke-width="1" fill="none" fill-rule="evenodd">
        <path d="M21.5432699,6.85743771 C21.8540469,13.7829869 16.6899602,21.504644 7.54769276,21.504644 C4.76721215,21.504644 2.17897685,20.6890756 0,19.2920537 C2.61182368,19.5998821 5.21951939,18.8757187 7.28939997,17.252838 C5.13519092,17.2133274 3.31652661,15.7897685 2.69025505,13.8337019 C3.46159516,13.9811293 4.22055138,13.9380805 4.91346012,13.7499631 C2.5451865,13.2734778 0.911101283,11.1404983 0.964175144,8.8595017 C1.62818812,9.22807018 2.38773404,9.44980097 3.19504644,9.47456877 C1.00191656,8.00973021 0.380952381,5.11425623 1.67123692,2.90107622 C4.09907121,5.88028896 7.72696447,7.84048356 11.8195489,8.0462922 C11.1018723,4.96564942 13.4383016,2 16.6162465,2 C18.0327289,2 19.3123986,2.59737579 20.2099366,3.55447442 C21.3315642,3.33392304 22.3853752,2.92407489 23.3365767,2.35972284 C22.9691877,3.50965649 22.1884122,4.47501106 21.1717529,5.08359133 C22.1677724,4.96505971 23.1166151,4.70028011 24,4.30871296 C23.340115,5.29647649 22.5050862,6.16334955 21.5432699,6.85743771" id="Twitter" fill="#373737"></path>
    </g>
</svg>