<?xml version="1.0" encoding="UTF-8"?>
<svg width="24px" height="24px" viewBox="0 0 24 24" version="1.1" xmlns="http://www.w3.org/2000/svg" xmlns:xlink="http://www.w3.org/1999/xlink">
    <!-- Generator: Sketch 57.1 (83088) - https://sketch.com -->
    <title>Social/Facebook Round - Dark</title>
    <desc>Created with Sketch.</desc>
    <defs>
        <path d="M12,0 C18.627417,-1.21743675e-15 24,5.372583 24,12 C24,17.001399 20.9403091,21.288169 16.5906349,23.0906023 L16.5907317,14.9629268 L19.5839024,14.9629268 L20.03,11.4900813 L16.5907317,11.4900813 L16.5907317,9.26918699 C16.5907317,8.26666667 16.8689431,7.58073171 18.3127642,7.58073171 L18.3127642,7.58073171 L20.1547154,7.57593496 L20.1547154,4.47243902 C19.8333333,4.42926829 18.7401545,4.33333333 17.4733333,4.33333333 C14.815935,4.33333333 13.0032439,5.95463415 13.0032439,8.92861789 L13.0032439,8.92861789 L13.0032439,11.4900813 L10,11.4900813 L10,14.9629268 L13.0032439,14.9629268 L13.0034718,23.9586393 C12.6726078,23.9860311 12.3379352,24 12,24 C5.372583,24 8.11624501e-16,18.627417 0,12 C-8.11624501e-16,5.372583 5.372583,1.21743675e-15 12,0 Z" id="path-1"></path>
    </defs>
    <g id="Social/Facebook-Round---Dark" stroke="none" stroke-width="1" fill="none" fill-rule="evenodd">
        <g id="Facebook"></g>
        <mask id="mask-2" fill="white">
            <use xlink:href="#path-1"></use>
        </mask>
        <use id="facebook" fill="#373737" xlink:href="#path-1"></use>
    </g>
</svg>