<?xml version="1.0" encoding="UTF-8"?>
<svg width="24px" height="24px" viewBox="0 0 24 24" version="1.1" xmlns="http://www.w3.org/2000/svg" xmlns:xlink="http://www.w3.org/1999/xlink">
    <!-- Generator: Sketch 57.1 (83088) - https://sketch.com -->
    <title>Social/Google+ Round - Dark</title>
    <desc>Created with Sketch.</desc>
    <g id="Social/Google+-Round---Dark" stroke="none" stroke-width="1" fill="none" fill-rule="evenodd">
        <path d="M12,0 C18.627417,-1.21743675e-15 24,5.372583 24,12 C24,18.627417 18.627417,24 12,24 C5.372583,24 8.11624501e-16,18.627417 0,12 C-8.11624501e-16,5.372583 5.372583,1.21743675e-15 12,0 Z M9.08176101,7 C6.27516981,7 4,9.27926553 4,12.0909091 C4,14.9025023 6.27516981,17.1818182 9.08176101,17.1818182 C13.2768302,17.1818182 14.3021887,13.5224122 13.9622642,11.0828083 L9.08176101,11.0828083 L9.08176101,13.0990099 C9.08176101,13.0990099 11.0341635,13.0963888 11.8291321,13.0963888 C11.3986415,14.4034419 10.7292579,15.1152115 9.08176101,15.1152115 C7.41449057,15.1152115 6.11320755,13.7611809 6.11320755,12.0909091 C6.11320755,10.4206373 7.41449057,9.06660666 9.08176101,9.06660666 C9.96327044,9.06660666 10.5325786,9.3770009 11.0547925,9.80962736 C11.472805,9.39086229 11.4378868,9.33118272 12.5013836,8.3250477 C11.5985912,7.50183258 10.3986918,7 9.08176101,7 Z M18.2389937,9.41944194 L16.9811321,9.41944194 L16.9811321,11.1836184 L15.1698113,11.1836184 L15.1698113,12.4437444 L16.9811321,12.4437444 L16.9811321,14.2583258 L18.2389937,14.2583258 L18.2389937,12.4437444 L20,12.4437444 L20,11.1836184 L18.2389937,11.1836184 L18.2389937,9.41944194 Z" id="Combined-Shape" fill="#373737"></path>
    </g>
</svg>