<?xml version="1.0" encoding="UTF-8"?>
<svg width="24px" height="24px" viewBox="0 0 24 24" version="1.1" xmlns="http://www.w3.org/2000/svg" xmlns:xlink="http://www.w3.org/1999/xlink">
    <!-- Generator: Sketch 57.1 (83088) - https://sketch.com -->
    <title>Social/Instagram Round - Dark</title>
    <desc>Created with Sketch.</desc>
    <g id="Social/Instagram-Round---Dark" stroke="none" stroke-width="1" fill="none" fill-rule="evenodd">
        <path d="M12,0 C18.627417,-1.21743675e-15 24,5.372583 24,12 C24,18.627417 18.627417,24 12,24 C5.372583,24 8.11624501e-16,18.627417 0,12 C-8.11624501e-16,5.372583 5.372583,1.21743675e-15 12,0 Z M12.9394776,4.00086241 L11.0605408,4.00086241 L10.80585,4.00158946 C9.67756421,4.00556084 9.36527639,4.01786101 8.70161023,4.04814217 C7.8501035,4.08697982 7.26855496,4.22222884 6.75969602,4.42000552 C6.23362529,4.62441921 5.78748454,4.89796583 5.34270931,5.34270931 C4.89796583,5.78748454 4.62441921,6.23362529 4.42000552,6.75969602 C4.22222884,7.26855496 4.08697982,7.8501035 4.04814217,8.70161023 C4.01569807,9.41268112 4.00389541,9.72038401 4.00086241,11.0605408 L4.00086241,11.0605408 L4.00086241,12.9394776 C4.00389541,14.279616 4.01569807,14.5873189 4.04814217,15.2983898 C4.08697982,16.1498965 4.22222884,16.731445 4.42000552,17.240304 C4.62441921,17.7663747 4.89796583,18.2125155 5.34270931,18.6572907 C5.78748454,19.1020342 6.23362529,19.3755808 6.75969602,19.5800262 C7.26855496,19.7777712 7.8501035,19.9130202 8.70161023,19.9518578 C9.55489529,19.9907907 9.82733045,20 12.0000159,20 C14.1726696,20 14.4451047,19.9907907 15.2983898,19.9518578 C16.1498965,19.9130202 16.731445,19.7777712 17.240304,19.5800262 C17.7663747,19.3755808 18.2125155,19.1020342 18.6572907,18.6572907 C19.1020342,18.2125155 19.3755808,17.7663747 19.5800262,17.240304 C19.7777712,16.731445 19.9130202,16.1498965 19.9518578,15.2983898 C19.9907907,14.4451047 20,14.1726696 20,12.0000159 C20,9.82733045 19.9907907,9.55489529 19.9518578,8.70161023 C19.9130202,7.8501035 19.7777712,7.26855496 19.5800262,6.75969602 C19.3755808,6.23362529 19.1020342,5.78748454 18.6572907,5.34270931 C18.2125155,4.89796583 17.7663747,4.62441921 17.240304,4.42000552 C16.731445,4.22222884 16.1498965,4.08697982 15.2983898,4.04814217 C14.5873189,4.01569807 14.279616,4.00389541 12.9394776,4.00086241 L12.9394776,4.00086241 Z M12.7176062,5.44186472 C14.2085718,5.44395305 14.4945648,5.45441121 15.2326865,5.4880885 C16.0126786,5.52365528 16.4362726,5.65398211 16.718171,5.76354048 C17.0915904,5.90866563 17.3580872,6.08202191 17.6380168,6.36198324 C17.9179781,6.64191283 18.0913344,6.9084096 18.2364595,7.28182899 C18.3460179,7.56372745 18.4763447,7.9873214 18.5119115,8.7673135 C18.5455888,9.50543525 18.5560469,9.79142825 18.5581353,11.2824151 L18.5581353,11.2824151 L18.5581353,12.7176062 C18.5560469,14.2085718 18.5455888,14.4945648 18.5119115,15.2326865 C18.4763447,16.0126786 18.3460179,16.4362726 18.2364595,16.718171 C18.0913344,17.0915904 17.9179781,17.3580872 17.6380168,17.6380168 C17.3580872,17.9179781 17.0915904,18.0913344 16.718171,18.2364595 C16.4362726,18.3460179 16.0126786,18.4763447 15.2326865,18.5119115 C14.4946759,18.5455888 14.2087211,18.5560469 12.717657,18.5581353 L12.717657,18.5581353 L11.2823656,18.5581353 C9.79128584,18.5560469 9.50535189,18.5455888 8.7673135,18.5119115 C7.9873214,18.4763447 7.56372745,18.3460179 7.28182899,18.2364595 C6.9084096,18.0913344 6.64191283,17.9179781 6.36198324,17.6380168 C6.08205366,17.3580872 5.90866563,17.0915904 5.76354048,16.718171 C5.65398211,16.4362726 5.52365528,16.0126786 5.4880885,15.2326865 C5.45441121,14.4945648 5.44395305,14.2085718 5.44186472,12.7176062 L5.44186472,12.7176062 L5.44186472,11.2824151 C5.44395305,9.79142825 5.45441121,9.50543525 5.4880885,8.7673135 C5.52365528,7.9873214 5.65398211,7.56372745 5.76354048,7.28182899 C5.90866563,6.9084096 6.08202191,6.64191283 6.36198324,6.36198324 C6.64191283,6.08202191 6.9084096,5.90866563 7.28182899,5.76354048 C7.56372745,5.65398211 7.9873214,5.52365528 8.7673135,5.4880885 C9.50543525,5.45441121 9.79142825,5.44395305 11.2824151,5.44186472 L11.2824151,5.44186472 Z M12.0000159,7.89189447 C9.73114137,7.89189447 7.89189447,9.73114137 7.89189447,12.0000159 C7.89189447,14.2688586 9.73114137,16.1081055 12.0000159,16.1081055 C14.2688586,16.1081055 16.1081055,14.2688586 16.1081055,12.0000159 C16.1081055,9.73114137 14.2688586,7.89189447 12.0000159,7.89189447 Z M12.0000159,9.33333333 C13.4727662,9.33333333 14.6666667,10.5272338 14.6666667,12.0000159 C14.6666667,13.4727662 13.4727662,14.6666667 12.0000159,14.6666667 C10.5272338,14.6666667 9.33333333,13.4727662 9.33333333,12.0000159 C9.33333333,10.5272338 10.5272338,9.33333333 12.0000159,9.33333333 Z M16.2704107,6.76957215 C15.7402434,6.76957215 15.3104253,7.19939028 15.3104253,7.7295893 C15.3104253,8.25978831 15.7402434,8.68957469 16.2704107,8.68957469 C16.8006097,8.68957469 17.2304279,8.25978831 17.2304279,7.7295893 C17.2304279,7.19939028 16.8006097,6.76957215 16.2704107,6.76957215 Z" id="Combined-Shape" fill="#373737"></path>
    </g>
</svg>