<?xml version="1.0" encoding="UTF-8"?>
<svg width="24px" height="24px" viewBox="0 0 24 24" version="1.1" xmlns="http://www.w3.org/2000/svg" xmlns:xlink="http://www.w3.org/1999/xlink">
    <!-- Generator: Sketch 57.1 (83088) - https://sketch.com -->
    <title>Social/Linkedin TRound - Dark</title>
    <desc>Created with Sketch.</desc>
    <g id="Social/Linkedin-TRound---Dark" stroke="none" stroke-width="1" fill="none" fill-rule="evenodd">
        <path d="M12,0 C18.627417,-1.21743675e-15 24,5.372583 24,12 C24,18.627417 18.627417,24 12,24 C5.372583,24 8.11624501e-16,18.627417 0,12 C-8.11624501e-16,5.372583 5.372583,1.21743675e-15 12,0 Z M16.1078993,8.92349656 C14.0329861,8.92349656 13.1597656,10.5392875 13.1597656,10.5392875 L13.1597656,10.5392875 L13.1597656,9.22222222 L10.2555556,9.22222222 L10.2555556,19 L13.1597656,19 L13.1597656,13.8672632 C13.1597656,12.4919798 13.7928385,11.673586 15.0045573,11.673586 C16.1184028,11.673586 16.653125,12.4600076 16.653125,13.8672632 L16.653125,13.8672632 L16.653125,19 L19.6666667,19 L19.6666667,12.8093162 C19.6666667,10.1899789 18.1818576,8.92349656 16.1078993,8.92349656 Z M8.31957465,9.22222222 L5.29123264,9.22222222 L5.29123264,19 L8.31957465,19 L8.31957465,9.22222222 Z M6.79084201,4.33333333 C5.8016059,4.33333333 5,5.14122878 5,6.13761727 C5,7.13400575 5.8016059,7.9419012 6.79084201,7.9419012 L6.79084201,7.9419012 L6.93774,7.93591941 C7.85818815,7.86064042 8.5812066,7.08418632 8.5812066,6.13761727 C8.5812066,5.14122878 7.78007812,4.33333333 6.79084201,4.33333333 Z" id="Linkedin" fill="#373737"></path>
    </g>
</svg>