<?xml version="1.0" encoding="UTF-8"?>
<svg width="24px" height="24px" viewBox="0 0 24 24" version="1.1" xmlns="http://www.w3.org/2000/svg" xmlns:xlink="http://www.w3.org/1999/xlink">
    <!-- Generator: Sketch 57.1 (83088) - https://sketch.com -->
    <title>Social/Messanger Round - Dark</title>
    <desc>Created with Sketch.</desc>
    <g id="Social/Messanger-Round---Dark" stroke="none" stroke-width="1" fill="none" fill-rule="evenodd">
        <path d="M12,0 C18.627417,-1.21743675e-15 24,5.372583 24,12 C24,18.627417 18.627417,24 12,24 C5.372583,24 8.11624501e-16,18.627417 0,12 C-8.11624501e-16,5.372583 5.372583,1.21743675e-15 12,0 Z M12,4 C7.58171429,4 4,7.31639506 4,11.4074074 C4,13.7385185 5.16332919,15.8178272 6.98136646,17.1756543 L6.98136646,20 L9.70529193,18.505037 C10.4322484,18.7062222 11.2023851,18.8148148 12,18.8148148 C16.4182857,18.8148148 20,15.4984198 20,11.4074074 C20,7.31639506 16.4182857,4 12,4 Z M17.1677019,9.33333333 L12.7950311,13.9753086 L10.757764,11.8024691 L6.7826087,13.9753086 L11.1552795,9.33333333 L13.242236,11.5061728 L17.1677019,9.33333333 Z" id="Combined-Shape" fill="#373737"></path>
    </g>
</svg>