<?xml version="1.0" encoding="UTF-8"?>
<svg width="24px" height="24px" viewBox="0 0 24 24" version="1.1" xmlns="http://www.w3.org/2000/svg" xmlns:xlink="http://www.w3.org/1999/xlink">
    <!-- Generator: Sketch 57.1 (83088) - https://sketch.com -->
    <title>Social/Pintrest Round - Dark</title>
    <desc>Created with Sketch.</desc>
    <g id="Social/Pintrest-Round---Dark" stroke="none" stroke-width="1" fill="none" fill-rule="evenodd">
        <path d="M12,0 C18.627417,-1.21743675e-15 24,5.372583 24,12 C24,18.627417 18.627417,24 12,24 C5.372583,24 8.11624501e-16,18.627417 0,12 C-8.11624501e-16,5.372583 5.372583,1.21743675e-15 12,0 Z M12.2230381,4 C7.86512011,4 5.66666667,7.13075526 5.66666667,9.74119368 C5.66666667,11.321936 6.26501614,12.7287186 7.54541122,13.2521604 C7.75543137,13.3386195 7.94361774,13.2552855 8.00496025,13.022471 C8.04706825,12.8610113 8.14739966,12.4537163 8.19210692,12.284444 C8.25344943,12.0542338 8.2300561,11.9735039 8.06006455,11.7724606 C7.69044989,11.3359986 7.45443715,10.7703689 7.45443715,9.97036225 C7.45443715,7.64742623 9.18918275,5.56876307 11.97091,5.56876307 C14.4344878,5.56876307 15.7876622,7.07658814 15.7876622,9.09014658 C15.7876622,11.7401687 14.6169558,13.9766456 12.8790911,13.9766456 C11.9204843,13.9766456 11.2020491,13.1818473 11.4313037,12.2068392 C11.7073451,11.0417253 12.2417528,9.78598572 12.2417528,8.94535371 C12.2417528,8.19326411 11.8383477,7.56565471 11.0045054,7.56565471 C10.0230251,7.56565471 9.23492971,8.58232985 9.23492971,9.94432037 C9.23492971,10.8115151 9.52812615,11.3984992 9.52812615,11.3984992 C9.52812615,11.3984992 8.52377239,15.659993 8.34806247,16.4063534 C7.99768233,17.8928241 8.29555743,19.7152351 8.32103017,19.8996117 C8.33558602,20.0079459 8.47542617,20.0339878 8.53832824,19.9511746 C8.62930232,19.8334653 9.79792926,18.3881407 10.1945762,16.9438579 C10.2956354,16.575886 10.7373483,14.8241527 10.8246803,14.4774857 L10.8397123,14.4177951 C11.1589014,15.0266544 12.0904759,15.563638 13.0807936,15.563638 C16.0299131,15.563638 18.030303,12.8703864 18.030303,9.2646272 C18.030303,6.53856282 15.72528,4 12.2230381,4 Z" id="pintrest" fill="#373737"></path>
    </g>
</svg>