<?xml version="1.0" encoding="UTF-8"?>
<svg width="24px" height="24px" viewBox="0 0 24 24" version="1.1" xmlns="http://www.w3.org/2000/svg" xmlns:xlink="http://www.w3.org/1999/xlink">
    <!-- Generator: Sketch 57.1 (83088) - https://sketch.com -->
    <title>Social/RSS Round - Dark</title>
    <desc>Created with Sketch.</desc>
    <g id="Social/RSS-Round---Dark" stroke="none" stroke-width="1" fill="none" fill-rule="evenodd">
        <path d="M12,0 C18.627417,-1.21743675e-15 24,5.372583 24,12 C24,18.627417 18.627417,24 12,24 C5.372583,24 8.11624501e-16,18.627417 0,12 C-8.11624501e-16,5.372583 5.372583,1.21743675e-15 12,0 Z M6.76203945,15.1428571 C5.60495661,15.1428571 4.66682381,16.081 4.66682381,17.2380952 C4.66682381,18.3951905 5.60495661,19.3333333 6.76203945,19.3333333 C7.9191223,19.3333333 8.8572551,18.3951905 8.8572551,17.2380952 C8.8572551,16.081 7.9191223,15.1428571 6.76203945,15.1428571 Z M4.66682381,4.66666667 L4.66682381,7.46014286 C11.2138489,7.46014286 16.5398871,12.7862381 16.5398871,19.3333333 L16.5398871,19.3333333 L19.3333333,19.3333333 C19.3333333,11.2462381 12.7538324,4.66666667 4.66682381,4.66666667 L4.66682381,4.66666667 Z M4.66666667,9.55538095 L4.66666667,12.349381 C8.51767302,12.349381 11.651068,15.4822857 11.651068,19.3333333 L11.651068,19.3333333 L14.4445143,19.3333333 C14.4445143,13.9417619 10.0581803,9.55538095 4.66666667,9.55538095 L4.66666667,9.55538095 Z" id="Combined-Shape" fill="#373737"></path>
    </g>
</svg>