<?xml version="1.0" encoding="UTF-8"?>
<svg width="24px" height="24px" viewBox="0 0 24 24" version="1.1" xmlns="http://www.w3.org/2000/svg" xmlns:xlink="http://www.w3.org/1999/xlink">
    <!-- Generator: Sketch 57.1 (83088) - https://sketch.com -->
    <title>Social/Share Round - Dark</title>
    <desc>Created with Sketch.</desc>
    <g id="Social/Share-Round---Dark" stroke="none" stroke-width="1" fill="none" fill-rule="evenodd">
        <path d="M12,0 C18.627417,-1.21743675e-15 24,5.372583 24,12 C24,18.627417 18.627417,24 12,24 C5.372583,24 8.11624501e-16,18.627417 0,12 C-8.11624501e-16,5.372583 5.372583,1.21743675e-15 12,0 Z M16.4856667,4.66666667 C15.0396667,4.66666667 13.867,5.83866667 13.867,7.28533333 C13.867,7.39333333 13.875,7.49933333 13.8873333,7.60366667 L9.17766667,10.077 C8.701,9.57833333 8.02966667,9.267 7.285,9.267 C5.839,9.267 4.66666667,10.4396667 4.66666667,11.8853333 C4.66666667,13.3313333 5.839,14.5033333 7.285,14.5033333 C7.89366667,14.5033333 8.45433333,14.295 8.899,13.946 L13.8676667,16.399 C13.8676667,16.409 13.867,16.418 13.867,16.4276667 C13.867,17.8736667 15.0396667,19.0463333 16.4856667,19.0463333 C17.9313333,19.0463333 19.104,17.8736667 19.104,16.4276667 C19.104,14.982 17.9313333,13.8093333 16.4856667,13.8093333 C15.716,13.8093333 15.0246667,14.1406667 14.546,14.6686667 L9.86066667,12.3556667 C9.888,12.2033333 9.90333333,12.0463333 9.90333333,11.8853333 C9.90333333,11.853 9.90233333,11.821 9.901,11.789 L14.748,9.24366667 C15.2106667,9.65366667 15.819,9.90366667 16.4856667,9.90366667 C17.932,9.90366667 19.104,8.73133333 19.104,7.28533333 C19.104,5.83866667 17.9313333,4.66666667 16.4856667,4.66666667 Z" id="Combined-Shape" fill="#373737"></path>
    </g>
</svg>