<?xml version="1.0" encoding="UTF-8"?>
<svg width="24px" height="24px" viewBox="0 0 24 24" version="1.1" xmlns="http://www.w3.org/2000/svg" xmlns:xlink="http://www.w3.org/1999/xlink">
    <!-- Generator: Sketch 57.1 (83088) - https://sketch.com -->
    <title>Social/Skype Round - Dark</title>
    <desc>Created with Sketch.</desc>
    <g id="Social/Skype-Round---Dark" stroke="none" stroke-width="1" fill="none" fill-rule="evenodd">
        <path d="M12,0 C18.627417,-1.21743675e-15 24,5.372583 24,12 C24,18.627417 18.627417,24 12,24 C5.372583,24 8.11624501e-16,18.627417 0,12 C-8.11624501e-16,5.372583 5.372583,1.21743675e-15 12,0 Z M8.66081769,4.66666667 C6.45496286,4.66666667 4.66666667,6.46296092 4.66666667,8.67868133 C4.66666667,9.45129143 4.88477511,10.1718772 5.26115693,10.7842135 C5.19006258,11.1806972 5.15113763,11.5881675 5.15113763,12.0053317 C5.15113763,15.8014938 8.2146283,18.8796551 11.9945312,18.8796551 C12.4333216,18.8796551 12.8618179,18.8366785 13.2771246,18.7571879 C13.8790139,19.1226509 14.5844885,19.3333333 15.3398257,19.3333333 C17.5450371,19.3326871 19.3333333,17.5363928 19.3333333,15.3206724 C19.3333333,14.5438616 19.1126513,13.8193982 18.7327309,13.2044769 C18.8006083,12.815102 18.8382465,12.4144176 18.8382465,12.0053317 C18.8382465,8.20852336 15.7741124,5.13133138 11.9945312,5.13133138 C11.5644265,5.13133138 11.1433292,5.17301549 10.7344563,5.24927479 C10.1299936,4.87961107 9.42001521,4.66666667 8.66081769,4.66666667 Z M12.0681991,7.12118208 C14.2753407,7.25108139 15.5679067,8.22629565 15.693689,9.13688339 C15.7551325,9.73209368 15.3610575,10.1948196 14.677458,10.1948196 C13.679242,10.1948196 13.577265,8.85801993 11.8584547,8.85801993 C11.0828508,8.85801993 10.4282038,9.18179882 10.4282038,9.88428914 C10.4282038,11.3522807 15.9365678,10.4995337 15.9365678,13.7315062 C15.9365678,15.5946889 14.4519506,16.8151608 12.2358016,16.8151608 C10.2869802,16.8151608 8.32786454,15.9278386 8.33783705,14.3997444 C8.34105399,13.9386342 8.68365795,13.5156536 9.13917646,13.5156536 C10.2869802,13.5156536 10.2763643,15.2285796 12.1039071,15.2285796 C13.3858572,15.2285796 13.8236825,14.5260893 13.8236825,14.0362202 C13.8236825,12.2680385 8.2825057,13.3521485 8.2825057,10.0261444 C8.2825057,8.22629565 9.75489852,6.98482011 12.0681991,7.12118208 Z" id="Combined-Shape" fill="#373737"></path>
    </g>
</svg>