<?xml version="1.0" encoding="UTF-8"?>
<svg width="24px" height="24px" viewBox="0 0 24 24" version="1.1" xmlns="http://www.w3.org/2000/svg" xmlns:xlink="http://www.w3.org/1999/xlink">
    <!-- Generator: Sketch 57.1 (83088) - https://sketch.com -->
    <title>Social/Snapchat Round - Dark</title>
    <desc>Created with Sketch.</desc>
    <g id="Social/Snapchat-Round---Dark" stroke="none" stroke-width="1" fill="none" fill-rule="evenodd">
        <path d="M12,0 C18.627417,-1.21743675e-15 24,5.372583 24,12 C24,18.627417 18.627417,24 12,24 C5.372583,24 8.11624501e-16,18.627417 0,12 C-8.11624501e-16,5.372583 5.372583,1.21743675e-15 12,0 Z M12.1531351,4.66666667 L12.1139923,4.66683204 L12.1139923,4.66683204 C12.015472,4.66782431 11.8535105,4.66939539 11.8389563,4.66956077 C11.4837689,4.66956077 10.7731038,4.71958737 10.009737,5.05555111 C9.57327857,5.24751268 9.18068991,5.50707217 8.8429177,5.82703568 C8.44021162,6.20827143 8.11214218,6.67831473 7.86799747,7.22430751 C7.51044656,8.02374081 7.59532499,9.37028319 7.66349311,10.4523874 L7.6637419,10.4540826 C7.6710397,10.5699706 7.67871069,10.6909854 7.68571824,10.8088993 C7.63326528,10.8329203 7.54822099,10.8582644 7.42287292,10.8582644 C7.22118816,10.8582644 6.98135579,10.793974 6.71021751,10.6672951 C6.63043925,10.6302506 6.53938256,10.6115216 6.43891337,10.6115216 C6.27749093,10.6115216 6.10731941,10.6589022 5.95970475,10.7454358 C5.77398394,10.8541713 5.65398483,11.0078481 5.6213935,11.1782279 C5.59991474,11.2909325 5.60095136,11.5136955 5.84911814,11.7396008 C5.98562024,11.8639644 6.18614399,11.9786535 6.44496723,12.0806499 C6.51288656,12.1073169 6.59349412,12.132785 6.67887013,12.1597828 C6.97513608,12.2536757 7.42353635,12.395528 7.54046707,12.6699301 C7.58984473,12.7858664 7.58036542,12.9323228 7.51255704,13.1059737 L7.45654233,13.231551 L7.45654233,13.231551 C7.42921703,13.2951799 7.17429148,13.8709406 6.65137897,14.4781642 C6.35424226,14.8234718 6.02696064,15.112055 5.67915396,15.3361411 C5.2546374,15.6097163 4.79529042,15.7885717 4.31400856,15.867622 C4.12501203,15.8985475 3.99004413,16.0664467 4.00057619,16.2572506 L4.01267872,16.3394069 L4.01267872,16.3394069 L4.03917991,16.4201058 C4.03934577,16.4204366 4.03955309,16.4207673 4.03971895,16.4210567 C4.11613857,16.599292 4.29331763,16.7506948 4.58137355,16.8842369 C4.93336818,17.0472574 5.4598052,17.1843965 6.14592314,17.2916849 C6.1805877,17.3574224 6.21657914,17.5226342 6.24149948,17.6357522 C6.26758084,17.7559814 6.29478174,17.8796008 6.33355133,18.0109103 C6.3753893,18.153176 6.48390267,18.3231838 6.76267047,18.3231838 C6.86832277,18.3231838 6.98981461,18.2994521 7.13050466,18.2722476 C7.33654322,18.2319369 7.61829649,18.176949 7.9699594,18.176949 C8.16492686,18.176949 8.3669848,18.1940655 8.57036961,18.2277611 C8.96241923,18.2928371 9.30039876,18.5308975 9.69145323,18.8065813 C10.2638332,19.2100189 10.9117206,19.6666667 11.9016097,19.6666667 C11.9286032,19.6666667 11.9556797,19.6657984 11.9824245,19.6639379 C12.0151403,19.6654677 12.0556928,19.6666667 12.0984845,19.6666667 C13.0886638,19.6666667 13.7363853,19.2098535 14.3081433,18.8067467 L14.3090556,18.8059198 C14.700193,18.5305668 15.0377993,18.2928371 15.4297245,18.2277611 C15.6330264,18.1941069 15.8350429,18.176949 16.0300933,18.176949 C16.366041,18.176949 16.6320377,18.2196577 16.869548,18.2658392 C17.0245434,18.2962686 17.1449986,18.3109045 17.2374237,18.3109045 L17.246463,18.3110699 L17.255834,18.3110699 C17.4597164,18.3110699 17.6095287,18.1994816 17.6667087,18.0042125 C17.7046904,17.8756731 17.7318084,17.7549478 17.7585532,17.6326927 C17.7818564,17.5266859 17.8190918,17.3567608 17.8537564,17.2903206 C18.5403304,17.1828254 19.0665601,17.0459758 19.4185962,16.8829966 C19.7059887,16.7500746 19.8829604,16.5988372 19.9598361,16.4213462 C19.9828906,16.368136 19.9963666,16.3129828 19.9993936,16.2568372 C20.0102159,16.066364 19.8750406,15.8981341 19.6859197,15.8672086 C17.6233498,15.5282532 16.6536858,13.478469 16.551326,13.2490045 L16.5350101,13.2130701 C16.4256674,12.9917128 16.4004153,12.8088469 16.45971,12.6694753 C16.5763919,12.3953213 17.024502,12.253469 17.3209752,12.1596175 C17.4068074,12.132661 17.4877052,12.1070275 17.5550855,12.0804845 C17.8469561,11.9655473 18.0555655,11.8408529 18.1931872,11.6992487 C18.3575536,11.53044 18.3895644,11.3687011 18.3875741,11.2628597 C18.3825569,11.0067731 18.1862211,10.7792141 17.8739082,10.6677912 C17.7684218,10.624297 17.6481324,10.6013509 17.5256454,10.6013509 C17.4422597,10.6013509 17.3187776,10.612762 17.2018883,10.6671711 C16.9516483,10.7839274 16.7274896,10.847763 16.5350515,10.8568587 C16.4327164,10.8516907 16.3609409,10.8295715 16.3144588,10.8084445 C16.3203054,10.7085567 16.3267739,10.6059402 16.3334497,10.4989411 L16.3362278,10.4531316 C16.4047692,9.37032453 16.4899378,8.02274855 16.1322211,7.22273642 C15.8870397,6.67480047 15.5578093,6.20355818 15.1534861,5.82149554 C14.814387,5.50132531 14.4204715,5.24180717 13.9824374,5.04996963 C13.2836727,4.7442768 12.628321,4.67693986 12.2499803,4.66783991 L12.1531351,4.66666667 Z" id="Combined-Shape" fill="#373737"></path>
    </g>
</svg>