<?xml version="1.0" encoding="UTF-8"?>
<svg width="24px" height="24px" viewBox="0 0 24 24" version="1.1" xmlns="http://www.w3.org/2000/svg" xmlns:xlink="http://www.w3.org/1999/xlink">
    <!-- Generator: Sketch 57.1 (83088) - https://sketch.com -->
    <title>Social/Twitter Round- Dark</title>
    <desc>Created with Sketch.</desc>
    <g id="Social/Twitter-Round--Dark" stroke="none" stroke-width="1" fill="none" fill-rule="evenodd">
        <path d="M12,0 C18.627417,-1.21743675e-15 24,5.372583 24,12 C24,18.627417 18.627417,24 12,24 C5.372583,24 8.11624501e-16,18.627417 0,12 C-8.11624501e-16,5.372583 5.372583,1.21743675e-15 12,0 Z M15.0774977,5.33333333 C12.9588678,5.33333333 11.4012482,7.31043295 11.8796992,9.3641948 C9.15130965,9.22698904 6.73271414,7.92019264 5.11415794,5.93405081 C4.25396825,7.40950415 4.66794437,9.33982014 6.13003096,10.3163792 C5.59182269,10.2998673 5.08545874,10.1520468 4.64278343,9.90633446 C4.60740086,11.4269989 5.696791,12.8489852 7.27564008,13.1666421 C6.81370092,13.2920537 6.30773011,13.3207529 5.79350337,13.2224679 C6.21101774,14.5265124 7.42346061,15.4755516 8.85959998,15.501892 C7.47967959,16.5838125 5.74121578,17.066588 4,16.8613691 C5.45265124,17.7927171 7.17814143,18.3364293 9.03179517,18.3364293 C15.1266401,18.3364293 18.5693646,13.1886579 18.36218,8.57162514 C19.0033908,8.1088997 19.5600767,7.53098432 20,6.87247531 C19.4110767,7.13352007 18.7785149,7.31003981 18.1145019,7.38906089 C18.7922748,6.9833407 19.3127918,6.339771 19.5577178,5.57314856 C18.9235835,5.94938326 18.2210428,6.22261536 17.4732911,6.36964961 C16.8749324,5.73158386 16.0218193,5.33333333 15.0774977,5.33333333 Z" id="twitter" fill="#373737"></path>
    </g>
</svg>