<?xml version="1.0" encoding="UTF-8"?>
<svg width="24px" height="24px" viewBox="0 0 24 24" version="1.1" xmlns="http://www.w3.org/2000/svg" xmlns:xlink="http://www.w3.org/1999/xlink">
    <!-- Generator: Sketch 57.1 (83088) - https://sketch.com -->
    <title>Social/Youtube Round - Dark</title>
    <desc>Created with Sketch.</desc>
    <g id="Social/Youtube-Round---Dark" stroke="none" stroke-width="1" fill="none" fill-rule="evenodd">
        <g id="Group-9" fill="#373737">
            <path d="M12,0 C18.627417,-1.21743675e-15 24,5.372583 24,12 C24,18.627417 18.627417,24 12,24 C5.372583,24 8.11624501e-16,18.627417 0,12 C-8.11624501e-16,5.372583 5.372583,1.21743675e-15 12,0 Z M12.2192258,6.33390082 L11.7807742,6.33390082 C11.0044729,6.33707872 8.29875758,6.35805292 6.399,6.49648258 C6.086,6.53374506 5.4045,6.53676634 4.7955,7.17878882 C4.316,7.667733 4.16,8.77805423 4.16,8.77805423 C4.16,8.77805423 4,10.0822411 4,11.3859244 L4,12.6085366 C4,13.9127234 4.16,15.2164067 4.16,15.2164067 C4.16,15.2164067 4.316,16.326728 4.7955,16.8156722 C5.4045,17.4576946 6.204,17.4375528 6.56,17.5045245 C7.76,17.6206551 11.49125,17.6615486 11.9529688,17.6662066 L12.1402,17.6661721 C12.7985308,17.6631229 15.6333939,17.6418555 17.601,17.498482 C17.9135,17.4607159 18.5955,17.4576946 19.204,16.8156722 C19.6835,16.326728 19.84,15.2164067 19.84,15.2164067 C19.84,15.2164067 20,13.9127234 20,12.6085366 L20,11.3859244 C20,10.0822411 19.84,8.77805423 19.84,8.77805423 C19.84,8.77805423 19.6835,7.667733 19.204,7.17878882 C18.5955,6.53676634 17.9135,6.53374506 17.601,6.49648258 C15.7012424,6.35805292 12.9955271,6.33707872 12.2192258,6.33390082 Z M10.3475,9.56258053 L14.6705,11.8340812 L10.348,14.089972 L10.3475,9.56258053 Z" id="Combined-Shape"></path>
        </g>
    </g>
</svg>